<?xml version="1.0" encoding="UTF-8"?>
<svg width="1125" height="2436" viewBox="0 0 1125 2436" xmlns="http://www.w3.org/2000/svg">
  <defs>
    <linearGradient id="bgGrad" x1="0%" y1="0%" x2="100%" y2="100%">
      <stop offset="0%" style="stop-color:#f0fdf4;stop-opacity:1" />
      <stop offset="100%" style="stop-color:#dcfce7;stop-opacity:1" />
    </linearGradient>
  </defs>
  
  <!-- Background -->
  <rect width="1125" height="2436" fill="url(#bgGrad)"/>
  
  <!-- Logo -->
  <g transform="translate(462.5, 1018)">
    <g transform="translate(40, 40) scale(1.2)">
    <!-- Lid -->
    <rect x="20" y="30" width="60" height="8" rx="4" fill="#ffffff"/>
    <rect x="35" y="20" width="30" height="15" rx="3" fill="#ffffff"/>
    
    <!-- Body -->
    <path d="M25 40 L75 40 L72 90 L28 90 Z" fill="#ffffff"/>
    
    <!-- Lines -->
    <line x1="40" y1="50" x2="38" y2="80" stroke="#4ade80" stroke-width="3" stroke-linecap="round"/>
    <line x1="50" y1="50" x2="50" y2="80" stroke="#4ade80" stroke-width="3" stroke-linecap="round"/>
    <line x1="60" y1="50" x2="62" y2="80" stroke="#4ade80" stroke-width="3" stroke-linecap="round"/>
  </g><g transform="translate(130, 130) scale(0.6)">
    <path d="M12 2L13.09 8.26L22 9L13.09 9.74L12 16L10.91 9.74L2 9L10.91 8.26L12 2Z" fill="#ffffff"/>
  </g>
  </g>
  
  <!-- App Name -->
  <text x="562.5" y="1350" text-anchor="middle" font-family="Arial, sans-serif" font-size="48" font-weight="bold" fill="#16a34a">Trashee</text>
  <text x="562.5" y="1400" text-anchor="middle" font-family="Arial, sans-serif" font-size="24" fill="#22c55e">Green Revolutionary</text>
</svg>