<?xml version="1.0" encoding="UTF-8"?>
<svg width="29" height="29" viewBox="0 0 29 29" xmlns="http://www.w3.org/2000/svg">
  <defs>
    <linearGradient id="grad1" x1="0%" y1="0%" x2="100%" y2="100%">
      <stop offset="0%" style="stop-color:#4ade80;stop-opacity:1" />
      <stop offset="100%" style="stop-color:#16a34a;stop-opacity:1" />
    </linearGradient>
  </defs>
  
  <!-- Background circle -->
  <circle cx="14.5" cy="14.5" r="12.5" fill="url(#grad1)" stroke="#ffffff" stroke-width="2"/>
  
  <!-- Trash bin icon -->
  <g transform="translate(5.800000000000001, 5.800000000000001) scale(0.17400000000000002)">
    <!-- Lid -->
    <rect x="20" y="30" width="60" height="8" rx="4" fill="#ffffff"/>
    <rect x="35" y="20" width="30" height="15" rx="3" fill="#ffffff"/>
    
    <!-- Body -->
    <path d="M25 40 L75 40 L72 90 L28 90 Z" fill="#ffffff"/>
    
    <!-- Lines -->
    <line x1="40" y1="50" x2="38" y2="80" stroke="#4ade80" stroke-width="3" stroke-linecap="round"/>
    <line x1="50" y1="50" x2="50" y2="80" stroke="#4ade80" stroke-width="3" stroke-linecap="round"/>
    <line x1="60" y1="50" x2="62" y2="80" stroke="#4ade80" stroke-width="3" stroke-linecap="round"/>
  </g>
  
  <!-- Recycling symbol -->
  <g transform="translate(18.85, 18.85) scale(0.08700000000000001)">
    <path d="M12 2L13.09 8.26L22 9L13.09 9.74L12 16L10.91 9.74L2 9L10.91 8.26L12 2Z" fill="#ffffff"/>
  </g>
</svg>